# xmcd
# 
# Track frame offsets:
#     150
#     17884
#     37799
#     50353
# 
# Disc length: 770
# 
# Revision: 1
# Processed by: cddbd v1.5.2PL0 Copyright (c) Steve Scherf et al.
# Submitted via: fre:ac v1.0.31
# 
DISCID=25030004
DTITLE=Alan Lomax - The Land Where The Blues Began (Sampler Disc)
DYEAR=2002
DGENRE=Blues
TTITLE0=Willie "61" Blackwell and William Brown - Four O'Clock Flower Blues
TTITLE1=Reverend Ribbins - Sermon: Hell Is A Place (Two Excerpts)
TTITLE2=Dobie Red And Group - Rosie
TTITLE3=Alec Askew - Emmaline Take Your Time
EXTD=
EXTT0=
EXTT1=
EXTT2=
EXTT3=
PLAYORDER=
